HIERARCHY
ROOT Hips
{
 OFFSET 0.000000 0.000000 0.000000
 CHANNELS 6 Xposition Yposition Zposition Yrotation Xrotation Zrotation
 JOINT Chest
 {
  OFFSET 0.000000 14.374500 -0.011500
  CHANNELS 3 Yrotation Xrotation Zrotation
  JOINT Chest2
  {
   OFFSET 0.000000 9.203400 0.023400
   CHANNELS 3 Yrotation Xrotation Zrotation
   JOINT Chest3
   {
    OFFSET 0.000000 9.162700 0.000000
    CHANNELS 3 Yrotation Xrotation Zrotation
    JOINT Chest4
    {
     OFFSET 0.000000 9.153300 0.000000
     CHANNELS 3 Yrotation Xrotation Zrotation
     JOINT Neck
     {
      OFFSET 0.000000 13.353600 0.000000
      CHANNELS 3 Yrotation Xrotation Zrotation
      JOINT Head
      {
       OFFSET 0.000000 8.573800 0.049400
       CHANNELS 3 Yrotation Xrotation Zrotation
       End Site
       {
        OFFSET 0.000000 16.219200 0.026100
       }
      }
     }
     JOINT RightCollar
     {
      OFFSET -2.497100 8.876100 0.000000
      CHANNELS 3 Yrotation Xrotation Zrotation
      JOINT RightShoulder
      {
       OFFSET -12.289200 0.000000 0.000000
       CHANNELS 3 Yrotation Xrotation Zrotation
       JOINT RightElbow
       {
        OFFSET 0.000000 -28.194900 0.000000
        CHANNELS 3 Yrotation Xrotation Zrotation
        JOINT RightWrist
        {
         OFFSET 0.000000 -23.009700 0.007900
         CHANNELS 3 Yrotation Xrotation Zrotation
         End Site
         {
          OFFSET 0.000000 -17.151500 0.000000
         }
        }
       }
      }
     }
     JOINT LeftCollar
     {
      OFFSET 2.497100 8.876100 0.000000
      CHANNELS 3 Yrotation Xrotation Zrotation
      JOINT LeftShoulder
      {
       OFFSET 12.289200 0.000000 0.000000
       CHANNELS 3 Yrotation Xrotation Zrotation
       JOINT LeftElbow
       {
        OFFSET 0.000000 -28.194900 0.000000
        CHANNELS 3 Yrotation Xrotation Zrotation
        JOINT LeftWrist
        {
         OFFSET 0.000000 -23.009700 0.007900
         CHANNELS 3 Yrotation Xrotation Zrotation
         End Site
         {
          OFFSET 0.000000 -17.151500 0.000000
         }
        }
       }
      }
     }
    }
   }
  }
 }
 JOINT RightHip
 {
  OFFSET -11.777600 0.056700 0.005700
  CHANNELS 3 Yrotation Xrotation Zrotation
  JOINT RightKnee
  {
   OFFSET 0.000000 -39.966000 -0.004200
   CHANNELS 3 Yrotation Xrotation Zrotation
   JOINT RightAnkle
   {
    OFFSET 0.000000 -41.981900 0.027400
    CHANNELS 3 Yrotation Xrotation Zrotation
    JOINT RightToe
    {
     OFFSET 0.000000 -9.910600 16.950100
     CHANNELS 3 Yrotation Xrotation Zrotation
     End Site
     {
      OFFSET 0.000000 -1.461000 6.191600
     }
    }
   }
  }
 }
 JOINT LeftHip
 {
  OFFSET 11.777600 0.056700 0.005700
  CHANNELS 3 Yrotation Xrotation Zrotation
  JOINT LeftKnee
  {
   OFFSET 0.000000 -39.966000 -0.004200
   CHANNELS 3 Yrotation Xrotation Zrotation
   JOINT LeftAnkle
   {
    OFFSET 0.000000 -41.981900 0.027400
    CHANNELS 3 Yrotation Xrotation Zrotation
    JOINT LeftToe
    {
     OFFSET 0.000000 -9.910600 16.950100
     CHANNELS 3 Yrotation Xrotation Zrotation
     End Site
     {
      OFFSET 0.000000 -1.461000 6.191600
     }
    }
   }
  }
 }
}
MOTION
Frames: 14
Frame Time: 0.008333
-4.548197 130.406710 81.962806 178.433757 -45.090615 -3.979431 2.424048 26.491149 3.539467 0.285847 4.519876 0.506303 0.480132 7.142682 0.816059 1.815509 21.729775 2.758876 -4.934278 16.308269 0.660959 -5.424070 -8.436134 1.852009 -3.283918 -0.989676 -1.514370 -4.917914 3.164977 -3.167728 -78.770754 -44.376020 110.273245 -9.972455 6.628631 3.768864 -7.887360 -6.547424 1.897339 2.482822 3.816006 -1.360406 63.917811 -36.478615 -98.084555 14.686120 -10.519467 -2.896342 6.814390 -32.097120 1.554198 -77.875036 82.624514 -82.585810 0.844702 -26.275829 9.521784 -0.000564 -0.016573 -0.000330 -2.354201 -28.840631 -3.737859 147.578388 71.608194 157.870598 -0.893758 -3.837858 -7.962174 0.017016 -0.015929 0.009948
-4.545575 130.404630 81.947050 178.408573 -44.995758 -3.981056 2.429794 26.494824 3.544280 0.286084 4.521775 0.506597 0.473548 7.172445 0.816055 1.829232 21.654714 2.756422 -4.950829 16.324847 0.697862 -5.434113 -8.510559 1.880159 -3.285093 -0.974332 -1.531871 -4.929798 3.233530 -3.155367 -78.640835 -44.038549 109.457185 -10.891853 5.624890 2.448241 -7.889741 -6.499718 1.923357 2.735297 3.879841 -1.401978 64.389951 -35.939544 -97.718968 15.377770 -11.599062 -2.284634 6.846798 -32.197118 1.547138 -77.992929 82.628475 -82.676730 0.848403 -26.275637 9.521870 -0.004084 -0.019510 -0.002388 -2.356313 -28.916657 -3.747425 147.588462 71.583389 157.906072 -0.857262 -3.870214 -7.974678 0.019587 -0.012657 0.011451
-4.543020 130.403398 81.930345 178.388827 -44.903722 -3.983893 2.438705 26.451152 3.552959 0.281967 4.571201 0.504269 0.475495 7.173889 0.816741 1.832390 21.608797 2.756434 -4.986398 16.310173 0.733503 -5.482077 -8.574765 1.929701 -3.285782 -0.951680 -1.546475 -4.983382 3.292290 -3.136268 -78.552442 -43.776247 108.653286 -11.811057 4.636735 1.271603 -7.888049 -6.439565 1.947867 3.012751 3.933282 -1.457852 64.862560 -35.355872 -97.387100 16.025085 -12.709523 -1.631762 6.880323 -32.293131 1.539079 -78.149960 82.634995 -82.805300 0.854245 -26.271081 9.524890 -0.001819 -0.017156 -0.001064 -2.361194 -28.989816 -3.752570 147.590480 71.563651 157.927014 -0.826796 -3.895552 -7.985279 0.019182 -0.012107 0.011214
-4.542328 130.403334 81.912243 178.353462 -44.818494 -3.965406 2.454020 26.484142 3.547213 0.287382 4.547524 0.505965 0.478876 7.174979 0.817293 1.837510 21.683255 2.762372 -5.003453 16.155713 0.759979 -5.606181 -8.629766 2.021453 -3.285185 -1.044468 -1.555964 -5.065278 3.345209 -3.103100 -78.484292 -43.529778 107.854063 -12.690819 3.637905 0.178738 -7.883210 -6.489885 1.979804 3.305126 3.982219 -1.522349 65.346001 -34.750788 -97.086441 16.627658 -13.859769 -0.914606 6.940147 -32.382164 1.510607 -78.292260 82.647455 -82.905408 0.852547 -26.270602 9.520431 0.000567 -0.016040 0.000331 -2.365139 -29.037856 -3.778660 147.523954 71.548304 157.863606 -0.788211 -3.931879 -7.997173 0.008069 -0.003318 0.004718
-4.539980 130.402683 81.895003 178.334404 -44.728015 -3.962158 2.462054 26.509182 3.548657 0.292012 4.523900 0.507284 0.483058 7.175605 0.817432 1.852607 21.708384 2.765404 -5.113063 16.066842 0.817696 -5.702190 -8.709449 2.080136 -3.294633 -1.085470 -1.559183 -5.168063 3.394053 -3.053265 -78.420908 -43.258245 107.062415 -13.492783 2.611128 -0.879049 -7.885549 -6.485801 2.005551 3.596231 4.030412 -1.594434 65.858470 -34.142671 -96.813602 17.176884 -15.041317 -0.134654 6.971861 -32.475143 1.492443 -78.519759 82.666286 -83.098908 0.842366 -26.281252 9.515965 0.001771 -0.014597 0.001036 -2.371974 -29.115900 -3.771357 147.577169 71.528468 157.926769 -0.768700 -3.960687 -8.016290 0.010587 -0.008024 0.006190
-4.536418 130.401017 81.879002 178.303596 -44.631607 -3.952580 2.479914 26.501806 3.555880 0.294696 4.523574 0.507140 0.487344 7.175095 0.817330 1.863064 21.687053 2.765569 -5.254476 16.021217 0.871485 -5.823028 -8.784105 2.143986 -3.298038 -1.077197 -1.561727 -5.281297 3.436757 -2.985261 -78.379912 -42.956478 106.289786 -14.218431 1.563074 -1.930473 -7.877958 -6.431430 2.017844 3.878158 4.080820 -1.669423 66.412092 -33.562101 -96.570569 17.683581 -16.244314 0.699989 7.003355 -32.575083 1.480118 -78.640811 82.676915 -83.196552 0.841740 -26.284889 9.511724 -0.000825 -0.015293 -0.000482 -2.373199 -29.201040 -3.760476 147.632647 71.510117 157.989193 -0.749928 -3.983355 -8.018661 0.013116 -0.011429 0.007668
-4.535571 130.400319 81.861673 178.260402 -44.541770 -3.920435 2.502248 26.499322 3.550933 0.297040 4.522278 0.506828 0.491155 7.173135 0.816911 1.875025 21.684066 2.766305 -5.402316 15.953371 0.917896 -5.998785 -8.848414 2.230107 -3.297380 -1.081293 -1.563306 -5.391216 3.469162 -2.898039 -78.391112 -42.626986 105.549361 -14.924109 0.503876 -2.995868 -7.863368 -6.389567 2.025990 4.155508 4.134214 -1.746391 66.997560 -33.036036 -96.356684 18.158966 -17.458103 1.593437 7.040484 -32.667007 1.461374 -78.717752 82.680815 -83.266285 0.839846 -26.283778 9.514900 -0.003378 -0.015013 -0.001975 -2.389793 -29.260327 -3.774304 147.593471 71.502177 157.923883 -0.713790 -4.001461 -8.009044 0.004640 -0.004492 0.002713
-4.534979 130.398976 81.844888 178.241335 -44.446777 -3.901714 2.508796 26.492195 3.544620 0.299393 4.520452 0.506597 0.494904 7.170391 0.816614 1.890092 21.700130 2.768899 -5.579237 15.867300 0.967523 -6.206383 -8.909113 2.324854 -3.295300 -1.098060 -1.565658 -5.484225 3.491127 -2.792322 -78.468223 -42.269171 104.848508 -15.660595 -0.586735 -4.106337 -7.845866 -6.358307 2.036551 4.435431 4.185675 -1.827852 67.596885 -32.559723 -96.162851 18.589265 -18.669748 2.559695 7.061087 -32.762882 1.435721 -78.913153 82.691243 -83.447715 0.839563 -26.291611 9.516971 0.001507 -0.012421 0.000881 -2.397619 -29.344911 -3.779182 147.587882 71.496908 157.907598 -0.706622 -4.001460 -7.998116 0.000097 -0.012611 0.000057
-4.533227 130.398262 81.827431 178.234640 -44.353894 -3.893967 2.513401 26.489198 3.544316 0.302126 4.519141 0.506734 0.499197 7.168369 0.816837 1.889278 21.653194 2.766552 -5.771457 15.843675 1.014096 -6.445870 -8.969906 2.430328 -3.282008 -1.048397 -1.573886 -5.546039 3.505276 -2.671768 -78.610757 -41.886140 104.184775 -16.403338 -1.707912 -5.293114 -7.815250 -6.256557 2.044643 4.722456 4.230012 -1.913820 68.189655 -32.120344 -95.976895 18.972697 -19.853553 3.606104 7.075202 -32.851231 1.397867 -79.147204 82.718097 -83.658673 0.841335 -26.314884 9.514394 -0.000567 -0.008684 -0.000332 -2.405306 -29.431445 -3.780148 147.623732 71.482096 157.948941 -0.703828 -4.015673 -8.002254 0.003035 -0.019255 0.001774
-4.529842 130.397313 81.810150 178.219350 -44.258780 -3.884805 2.532052 26.486824 3.553754 0.301166 4.494643 0.504549 0.508138 7.191654 0.819699 1.911594 21.671467 2.773081 -6.002921 15.752060 1.071497 -6.714577 -9.033014 2.546832 -3.290016 -1.065556 -1.580793 -5.568848 3.517015 -2.541390 -78.811403 -41.499540 103.544910 -17.145842 -2.853420 -6.526325 -7.805272 -6.216936 2.068676 5.016265 4.264473 -2.001914 68.756266 -31.715781 -95.787238 19.356165 -20.974101 4.705511 7.092233 -32.946174 1.373537 -79.321266 82.732993 -83.812385 0.848172 -26.324272 9.509299 0.001593 -0.007264 0.000931 -2.425363 -29.511738 -3.779686 147.664527 71.471541 157.987570 -0.684942 -4.036384 -8.014157 0.003490 -0.020228 0.002040
-4.527174 130.396183 81.792608 178.199680 -44.161857 -3.867968 2.556198 26.487261 3.563017 0.291370 4.419792 0.496915 0.527150 7.266598 0.828412 1.937018 21.693983 2.780437 -6.256152 15.656403 1.132964 -7.009222 -9.095303 2.672010 -3.300830 -1.091958 -1.589403 -5.555769 3.529343 -2.402673 -79.048668 -41.125536 102.906539 -17.902376 -4.043513 -7.745890 -7.801533 -6.185234 2.093746 5.312247 4.292986 -2.083172 69.300669 -31.316274 -95.588495 19.762547 -22.050376 5.795907 7.114314 -33.042729 1.345341 -79.459793 82.745697 -83.934522 0.848579 -26.329243 9.507944 0.000267 -0.005312 0.000156 -2.441160 -29.588363 -3.781870 147.713249 71.469823 158.027524 -0.659624 -4.058503 -8.019502 0.003029 -0.017622 0.001770
-4.526074 130.395438 81.774054 178.175658 -44.066298 -3.840144 2.570611 26.441593 3.555877 0.317309 4.546476 0.510551 0.520917 7.194872 0.822537 1.956504 21.693212 2.786593 -6.521583 15.588577 1.193542 -7.325824 -9.151736 2.804630 -3.303903 -1.102800 -1.599444 -5.514584 3.541919 -2.255490 -79.317256 -40.737123 102.273498 -18.628144 -5.242357 -8.942354 -7.798475 -6.141591 2.110010 5.608487 4.323201 -2.147298 69.842034 -30.881653 -95.387948 20.141562 -23.125089 6.831858 7.143236 -33.138591 1.307962 -79.592511 82.756372 -84.053001 0.848323 -26.328303 9.523371 0.002030 -0.001594 0.001187 -2.467035 -29.649314 -3.794425 147.708433 71.481821 157.998971 -0.630840 -4.080788 -8.029634 -0.002386 -0.009312 -0.001395
-4.521636 130.392953 81.757283 178.161584 -43.957625 -3.831351 2.584180 26.385336 3.562835 0.339905 4.630420 0.519213 0.522258 7.168804 0.820787 1.977678 21.692717 2.793012 -6.800779 15.529190 1.257237 -7.660475 -9.197778 2.944630 -3.305527 -1.120381 -1.604659 -5.454227 3.556174 -2.102178 -79.627552 -40.291383 101.670974 -19.267028 -6.409797 -10.137212 -7.801809 -6.111733 2.121917 5.904926 4.362503 -2.190668 70.393488 -30.419582 -95.203862 20.485230 -24.170185 7.805943 7.156646 -33.248645 1.286127 -79.702741 82.765693 -84.148625 0.850695 -26.331042 9.524093 0.001517 -0.001250 0.000887 -2.485313 -29.739302 -3.792619 147.783771 71.483280 158.079744 -0.599946 -4.106148 -8.059808 0.003000 -0.006806 0.001754
-4.519178 130.390634 81.739603 178.148218 -43.848634 -3.813698 2.612334 26.385188 3.572087 0.345773 4.631810 0.520473 0.529453 7.169912 0.822176 2.000366 21.692576 2.799829 -7.092711 15.481729 1.323379 -8.012053 -9.229745 3.091103 -3.333151 -1.188034 -1.600665 -5.362175 3.618158 -1.952787 -79.962562 -39.780208 101.104770 -19.788492 -7.577462 -11.324126 -7.812073 -6.095908 2.127931 6.200888 4.419262 -2.212981 70.958426 -29.943626 -95.052650 20.801646 -25.164212 8.731356 7.174285 -33.357346 1.257158 -79.794688 82.773703 -84.229270 0.846186 -26.333330 9.524724 0.002550 0.000136 0.001491 -2.495616 -29.830024 -3.801909 147.795025 71.489781 158.085914 -0.580398 -4.117018 -8.063704 0.001575 -0.006663 0.000921
